<?xml version="1.0" encoding="UTF-8"?>
<svg width="505px" height="416px" viewBox="0 0 505 416" version="1.1" xmlns="http://www.w3.org/2000/svg" xmlns:xlink="http://www.w3.org/1999/xlink">
    <title>Favicon Copy</title>
    <g id="Favicon-Copy" stroke="none" stroke-width="1" fill="none" fill-rule="evenodd">
        <g id="logo" transform="translate(15.000000, 8.000000)" fill="#000000">
            <g id="tv" fill-rule="nonzero">
                <g id="Group" transform="translate(238.500000, 198.500000) scale(-1, 1) rotate(-180.000000) translate(-238.500000, -198.500000) translate(0.000000, 0.000000)">
                    <path d="M313.329375,396.033279 C311.987813,395.437236 310.199062,394.468666 309.416484,393.83537 C308.633906,393.202075 286.721719,371.372002 260.673047,345.369629 C234.661641,319.330003 213.196641,298.021468 212.973047,298.021468 C212.786719,298.021468 198.513984,312.102983 181.297266,329.313723 C157.074609,353.490714 149.621484,360.754987 148.317187,361.313778 C144.516094,363.027401 140.491406,361.649052 138.590859,357.923784 C137.808281,356.396423 137.659219,353.453461 138.292734,351.777091 C138.479062,351.181048 151.708359,337.658324 168.291562,321.118132 C184.539375,304.838709 197.880469,291.278733 197.880469,291.055217 C197.880469,290.68269 179.583047,290.570932 113.026641,290.496426 L28.1355469,290.384668 L25.1542969,289.527857 C12.6330469,285.988852 3.95015625,276.973702 0.96890625,264.30779 L0.186328125,260.955048 L0.111796875,146.216783 L0,31.4785176 L0.782578125,27.7532492 C2.19867188,20.9732608 4.77,15.6461271 8.75742188,11.2503104 C13.8255469,5.69966058 19.5644531,2.4959298 27.7628906,0.782306354 L31.4521875,0 L238.5,0 L445.547813,0 L449.237109,0.782306354 C455.423203,2.08615028 459.70875,3.98603714 463.957031,7.26427329 C470.478516,12.3306383 474.316875,18.7380998 476.217422,27.7532492 L477,31.4412649 L477,145.285466 L477,259.092414 L476.105625,263.376473 C474.726797,270.081956 472.677188,274.366014 468.577969,279.17161 C464.702344,283.790943 458.367188,287.702475 451.845703,289.527857 L448.864453,290.384668 L338.483672,290.496426 C251.6175,290.570932 228.065625,290.68269 228.065625,291.055217 C228.065625,291.278733 248.934375,312.363752 274.386797,337.88184 C318.360234,381.877259 320.7825,384.373189 321.751406,386.645603 C322.608516,388.582742 322.757578,389.402301 322.645781,391.19043 C322.459453,393.760865 321.639609,395.064709 319.515469,396.256795 C317.577656,397.29987 316.310625,397.262617 313.329375,396.033279 Z M338.930859,256.969011 C353.501719,252.945721 364.30875,241.211126 366.842812,226.608074 C367.699922,221.765225 367.737188,69.215486 366.880078,64.4098898 C365.50125,56.3633102 361.886484,49.5088164 356.110313,43.7719032 C350.296875,38.0349899 343.402734,34.495985 335.390625,33.1548884 C333.676406,32.8941196 293.355,32.7823615 198.439453,32.8568669 L63.9105469,32.9686249 L61.0410938,33.788184 C53.8115625,35.8370816 47.9608594,39.2643285 43.1908594,44.2189354 C38.4953906,49.0617842 35.7377344,53.792875 33.6508594,60.5356108 L32.6074219,63.8883523 L32.6074219,145.471729 L32.6074219,227.055106 L33.6508594,230.333342 C34.9924219,234.691906 36.4830469,237.895637 38.6444531,241.136621 C44.3833594,249.779243 53.8115625,255.888683 64.0223438,257.602307 C66.3328125,258.012086 92.6050781,258.086592 201.048047,258.049339 L335.204297,257.974834 L338.930859,256.969011 Z M424.120078,193.564944 C429.001875,192.037584 433.734609,188.461326 436.455,184.21452 C437.237578,183.022434 438.318281,180.638263 438.84,178.924639 C439.697109,176.205193 439.808906,175.385634 439.659844,171.660366 C439.473516,167.00378 438.765469,164.507851 436.678594,161.006098 C434.144531,156.833798 429.709922,153.220287 425.088984,151.618422 C421.846875,150.463589 415.809844,150.20282 412.530469,151.059632 C402.282422,153.704572 395.201953,163.353017 395.835469,173.746516 C396.431719,183.208698 403.027734,191.218025 412.195078,193.713954 C415.399922,194.570766 421.176094,194.533513 424.120078,193.564944 Z M423.113906,139.697563 C430.604297,137.797676 436.529531,132.284279 438.802734,125.057259 C439.883437,121.667264 440.069766,116.228373 439.212656,112.987389 C437.125781,105.08982 431.08875,99.0921382 423.151172,97.005988 C420.654375,96.3354396 415.064531,96.3354396 412.418672,97.0432406 C402.245156,99.6881812 395.127422,109.448384 395.872734,119.730125 C396.841641,133.550871 409.884609,143.087557 423.113906,139.697563 Z" id="Shape"></path>
                </g>
            </g>
            <g id="play" transform="translate(119.000000, 153.000000)">
                <polygon id="Triangle" transform="translate(112.000000, 97.500000) rotate(90.000000) translate(-112.000000, -97.500000) " points="112 28 209 167 15 167"></polygon>
                <rect id="Rectangle" x="0" y="0" width="18" height="194"></rect>
            </g>
        </g>
    </g>
</svg>